# xmcd CD database file generated by grip 1.8
# 
# Track frame offsets:
#       150
#       15870
#       27242
#       43767
#       54757
#       65207
#       88352
#       99652
#       122557
#       139300
#       149575
#       167990
#       181277
#       195425
#       210750
#       229352
#       244165
#       247902
#       265047
#       282847
#       302437
# 
# Disc length: 4226 seconds
# 
# Revision: 3
# Processed by: cddbd v1.4b41PL1 Copyright (c) Steve Scherf et al.
# Submitted via: grip 1.8
# 
DISCID=26108015
DTITLE=Various Artist - Images Of My Underworld Vol II
DYEAR=1900
DGENRE=
TTITLE0=69 Eyes - call me
TTITLE1=Voodoo Lovecats - that's what i believe
TTITLE2=Dogmachine - fetish
TTITLE3=Grinspoon - more than you are
TTITLE4=The Sinisters - capt. weirdo
TTITLE5=Jetta Black - love unbound
TTITLE6=Seethe - rut
TTITLE7=God Zoo - electronic
TTITLE8=Spiral Fetish - that kind of girl
TTITLE9=Animal Boy - mutha
TTITLE10=Peelchild - hellenistic
TTITLE11=Eye - blind progress through blind faith
TTITLE12=The Discontent - bulletproof
TTITLE13=The Loveless - the return of the ex-girlfriend
TTITLE14=Willow Wisp - lame
TTITLE15=More - a great big something
TTITLE16=Thrift - bug eyed
TTITLE17=Hollywood Teasze - big red tie
TTITLE18=Zooid - sub species
TTITLE19=Ostia - hesperus (semantic mix)
TTITLE20=Candyhateful - womb
EXTD=
EXTT0=
EXTT1=
EXTT2=
EXTT3=
EXTT4=
EXTT5=
EXTT6=
EXTT7=
EXTT8=
EXTT9=
EXTT10=
EXTT11=
EXTT12=
EXTT13=
EXTT14=
EXTT15=
EXTT16=
EXTT17=
EXTT18=
EXTT19=
EXTT20=
PLAYORDER=
